<svg xmlns="http://www.w3.org/2000/svg"
  xmlns:xlink="http://www.w3.org/1999/xlink"
  version="1.1"
  x="0px"
  y="0px"
  viewBox="0 0 100 100"
  enable-background="new 0 0 100 100"
  xml:space="preserve"
>
  <path fill="#000000"
d="M95,84.759l-8.711-10.176l-0.245,3.952l-9.487-4.743V40.388c0-0.015-0.004-0.03-0.005-0.045  c-0.001-0.036-0.003-0.071-0.007-0.107c-0.004-0.036-0.009-0.072-0.015-0.108c-0.006-0.033-0.011-0.065-0.019-0.097  c-0.007-0.031-0.016-0.06-0.025-0.091c-0.01-0.034-0.022-0.067-0.035-0.101c-0.014-0.036-0.027-0.071-0.043-0.106  c-0.007-0.015-0.01-0.03-0.017-0.044c-0.006-0.011-0.014-0.021-0.02-0.032c-0.016-0.03-0.034-0.059-0.052-0.089  c-0.021-0.034-0.043-0.067-0.066-0.099c-0.017-0.024-0.034-0.048-0.052-0.07c-0.02-0.025-0.042-0.047-0.064-0.07  c-0.027-0.029-0.054-0.056-0.083-0.083c-0.023-0.022-0.046-0.044-0.071-0.065c-0.022-0.018-0.047-0.035-0.07-0.052  c-0.032-0.024-0.065-0.045-0.099-0.066c-0.03-0.018-0.059-0.037-0.09-0.053c-0.011-0.006-0.02-0.014-0.031-0.02L51.562,26.925  v-9.132l3.644,1.548L50,7l-5.207,12.342l3.644-1.548v9.132L24.306,38.991c-0.01,0.005-0.019,0.013-0.029,0.018  c-0.032,0.017-0.063,0.036-0.094,0.055c-0.033,0.021-0.065,0.042-0.097,0.065c-0.023,0.017-0.047,0.033-0.069,0.051  c-0.026,0.021-0.049,0.044-0.073,0.067c-0.028,0.026-0.055,0.053-0.082,0.082c-0.022,0.023-0.044,0.045-0.064,0.07  c-0.019,0.023-0.035,0.047-0.052,0.071c-0.024,0.032-0.045,0.065-0.067,0.099c-0.018,0.029-0.036,0.058-0.052,0.089  c-0.006,0.011-0.014,0.02-0.02,0.032c-0.007,0.014-0.01,0.029-0.016,0.043c-0.016,0.035-0.031,0.071-0.044,0.108  c-0.012,0.033-0.024,0.066-0.035,0.101c-0.009,0.03-0.017,0.059-0.024,0.089c-0.008,0.033-0.014,0.066-0.019,0.099  c-0.006,0.036-0.011,0.072-0.015,0.108c-0.003,0.035-0.006,0.07-0.007,0.106c0,0.016-0.005,0.03-0.005,0.046v33.403l-9.487,4.743  l-0.245-3.952L5,84.759l13.368-0.863l-3.014-2.567l9.652-4.825l24.296,12.148c0.02,0.01,0.042,0.018,0.063,0.026  c0.018,0.008,0.036,0.016,0.055,0.024c0.082,0.033,0.165,0.059,0.25,0.078c0.015,0.003,0.031,0.005,0.046,0.007  c0.094,0.018,0.19,0.029,0.285,0.029c0.095,0,0.191-0.011,0.285-0.029c0.015-0.003,0.031-0.005,0.046-0.007  c0.085-0.019,0.168-0.045,0.25-0.078c0.019-0.007,0.036-0.016,0.055-0.024c0.021-0.009,0.042-0.016,0.063-0.026l24.296-12.148  l9.652,4.825l-3.015,2.567L95,84.759z M51.562,53.852l21.871-10.935v29.313L51.562,61.294V53.852z M71.502,40.388l-19.94,9.97  v-19.94L71.502,40.388z M48.438,50.358l-19.94-9.97l19.94-9.97V50.358z M26.567,42.916l21.871,10.935v7.442L26.567,72.229V42.916z   M48.438,64.787v19.94l-19.939-9.97L48.438,64.787z M51.562,84.726v-19.94l19.939,9.97L51.562,84.726z"/></svg>